<?xml version="1.0" encoding="UTF-8"?>
<svg width="840px" height="660px" viewBox="0 0 840 660" version="1.1" xmlns="http://www.w3.org/2000/svg" xmlns:xlink="http://www.w3.org/1999/xlink">
    <!-- Generator: Sketch 52 (66869) - http://www.bohemiancoding.com/sketch -->
    <title>Unmissable</title>
    <desc>Created with Sketch.</desc>
    <defs>
        <radialGradient cx="50%" cy="50%" fx="50%" fy="50%" r="137.074252%" gradientTransform="translate(0.500000,0.500000),scale(0.785714,1.000000),rotate(90.000000),translate(-0.500000,-0.500000)" id="radialGradient-1">
            <stop stop-color="#F7F7F7" offset="0%"></stop>
            <stop stop-color="#E2E2E2" offset="100%"></stop>
        </radialGradient>
    </defs>
    <g id="Unmissable" stroke="none" stroke-width="1" fill="none" fill-rule="evenodd">
        <rect fill="#F1F1F1" x="0" y="0" width="840" height="660"></rect>
        <rect id="Rectangle" fill="url(#radialGradient-1)" x="0" y="0" width="840" height="660"></rect>
        <g id="Logo" transform="translate(152.000000, 291.000000)" fill="#424242">
            <path d="M156.951289,43.4639942 C156.951289,47.7924449 155.88967,51.100304 153.786359,53.2919942 C151.677513,55.4858815 148.729557,56.6031491 145.014445,56.6031491 C141.294905,56.6031491 138.342521,55.4474308 136.235889,53.1766421 C134.142541,50.9080505 133.078708,47.5155998 133.078708,43.0871773 L133.078708,13.4482759 L122.103853,13.4482759 L122.103853,43.3881914 C122.103853,51.076135 124.142957,56.926135 128.171351,60.7734026 C132.20196,64.6272618 137.820014,66.579459 144.861678,66.579459 C148.370887,66.579459 151.591167,66.0905857 154.4406,65.121628 C157.273427,64.161459 159.71991,62.6871491 161.702558,60.7426421 C163.687419,58.7926421 165.23612,56.3274026 166.309916,53.416135 C167.379284,50.4905857 167.925037,46.9893745 167.925037,43.0080787 L167.925037,13.4482759 L156.951289,13.4482759 L156.951289,43.4639942 Z" id="Fill-1"></path>
            <path d="M200.083827,25.1034483 C198.653575,25.1034483 197.356164,25.2770257 196.229233,25.6230821 C195.091231,25.9669412 194.042896,26.4415328 193.115225,27.0292793 C192.172056,27.6247159 191.309699,28.3091384 190.543651,29.0726595 C189.773175,29.8471666 189.049193,30.6711102 188.402701,31.5170257 L187.685362,32.44973 L187.685362,25.862575 L176.871022,25.862575 L176.871022,65.726068 L187.685362,65.726068 L187.685362,43.496068 C187.685362,40.688068 188.380561,38.5183497 189.747713,37.0616173 C191.113759,35.5993919 193.001204,34.8567441 195.345842,34.8567441 C197.698229,34.8567441 199.545822,35.6037863 200.84434,37.0737018 C202.126253,38.5271384 202.773851,40.688068 202.773851,43.496068 L202.773851,65.726068 L213.59594,65.726068 L213.59594,39.7982088 C213.59594,35.2203779 212.407016,31.5829412 210.067912,28.9902652 C207.738772,26.4096736 204.380116,25.1034483 200.083827,25.1034483" id="Fill-3"></path>
            <path d="M270.945346,25.1034483 C268.223219,25.1034483 265.763452,25.6450539 263.638001,26.7040962 C261.507015,27.7675328 259.547614,29.3637863 257.799652,31.4511102 L257.415521,31.9191102 L257.140984,31.3808004 C256.11811,29.372575 254.636937,27.8081807 252.75392,26.7293638 C250.857619,25.6505469 248.572759,25.1034483 245.956904,25.1034483 C244.524438,25.1034483 243.212637,25.2814201 242.059136,25.6230821 C240.89678,25.9669412 239.838483,26.4415328 238.911919,27.0292793 C237.96875,27.6247159 237.105285,28.3091384 236.343665,29.0726595 C235.566547,29.8471666 234.84478,30.6711102 234.198288,31.5170257 L233.485376,32.44973 L233.485376,25.862575 L222.659966,25.862575 L222.659966,65.726068 L233.485376,65.726068 L233.485376,43.496068 C233.485376,40.688068 234.147366,38.5205469 235.456954,37.0693074 C236.779826,35.5993919 238.615241,34.8567441 240.916706,34.8567441 C243.212637,34.8567441 245.015949,35.6037863 246.262438,37.075899 C247.490107,38.5348286 248.113351,40.6902652 248.113351,43.496068 L248.113351,65.726068 L258.932119,65.726068 L258.932119,43.496068 C258.932119,40.688068 259.598537,38.5205469 260.907018,37.0693074 C262.22989,35.5993919 264.064198,34.8567441 266.365663,34.8567441 C268.663807,34.8567441 270.463799,35.6037863 271.712501,37.075899 C272.939064,38.5304342 273.560094,40.6902652 273.560094,43.496068 L273.560094,65.726068 L284.382183,65.726068 L284.382183,39.649899 C284.382183,34.8721243 283.184403,31.2138145 280.823159,28.7760398 C278.466344,26.3371666 275.148647,25.1034483 270.945346,25.1034483" id="Fill-5"></path>
            <polygon id="Fill-7" points="293.58794 21.1052569 305.021096 21.1052569 305.021096 11.6551724 293.58794 11.6551724"></polygon>
            <polygon id="Fill-9" points="293.58794 65.8623944 304.410029 65.8623944 304.410029 26 293.58794 26"></polygon>
            <path d="M340.855729,45.6417106 C339.71662,44.7562458 338.409247,43.9982176 336.975674,43.3841049 C335.512212,42.7579078 334.060928,42.2184993 332.652816,41.7658796 C331.546917,41.4176261 330.468694,41.0583866 329.467961,40.7013444 C328.465013,40.3454007 327.566125,39.9685838 326.783471,39.5829782 C325.988641,39.185288 325.337722,38.7590345 324.857281,38.2998233 C324.319276,37.7999641 324.043632,37.2045275 324.043632,36.538781 L324.043632,36.3838796 C324.043632,35.4489782 324.456545,34.666781 325.276837,34.0603585 C326.836608,32.8958514 330.042497,32.8453162 333.973474,34.2295416 C335.815532,34.8788092 337.721796,35.7510909 339.652414,36.8332035 L343.712911,29.5374571 C341.586353,28.1861895 339.240608,27.1117669 336.742096,26.3306683 C332.018502,24.8607528 327.17978,24.6970627 323.222234,25.9164993 C321.475379,26.4548092 319.922249,27.2721613 318.621518,28.3454852 C317.318572,29.416612 316.272451,30.7349218 315.510831,32.27295 C314.752532,33.803288 314.372829,35.5939923 314.372829,37.601119 L314.372829,37.7505275 C314.372829,39.6477951 314.724857,41.2693162 315.43002,42.56895 C316.13961,43.8784711 317.069495,45.0001331 318.191999,45.898781 C319.327787,46.8073162 320.618556,47.5554571 322.029988,48.1146402 C323.461347,48.6903021 324.902669,49.1857669 326.307459,49.5834571 C327.441033,49.9361049 328.505973,50.2656824 329.526632,50.5688937 C330.548398,50.8743021 331.472748,51.2005838 332.279755,51.5301613 C333.111117,51.8817106 333.78639,52.3057669 334.279008,52.7902458 C334.810371,53.3208655 335.083801,53.9525556 335.083801,54.664443 L335.083801,54.8171472 C335.083801,55.8575134 334.623287,56.7034289 333.727719,57.3373162 C332.860933,57.9470345 331.572379,58.2414571 329.788992,58.2414571 C327.818522,58.2414571 325.676466,57.827288 323.42703,57.0055416 C321.298258,56.2255416 319.13074,55.0687247 316.984256,53.5537669 L312.442211,60.484781 C315.059173,62.4633444 317.838864,63.9321613 320.706009,64.8681613 C323.683855,65.837119 326.639561,66.3270909 329.484566,66.3270909 C331.629943,66.3270909 333.667941,66.0656261 335.535459,65.5448937 C337.384159,65.0296542 339.023635,64.2485556 340.406285,63.2246683 C341.775651,62.2029782 342.851661,60.8846683 343.60996,59.3103866 C344.369366,57.7284148 344.757925,55.8080768 344.757925,53.6021049 L344.757925,53.4461049 C344.757925,51.6575979 344.38265,50.1173725 343.659775,48.8693725 C342.928044,47.6070909 341.985982,46.5216824 340.855729,45.6417106" id="Fill-10"></path>
            <path d="M377.670878,45.6417106 C376.531769,44.7562458 375.223288,43.9982176 373.780859,43.3841049 C372.321826,42.7579078 370.871648,42.2184993 369.46243,41.7658796 C368.352103,41.4176261 367.278307,41.0583866 366.277574,40.7013444 C365.280162,40.3454007 364.377952,39.9685838 363.599727,39.5829782 C362.801576,39.185288 362.15287,38.7590345 361.669109,38.2998233 C361.129997,37.7999641 360.856566,37.2045275 360.856566,36.538781 L360.856566,36.3838796 C360.856566,35.4489782 361.271694,34.666781 362.088664,34.0603585 C363.648435,32.8958514 366.853217,32.8453162 370.78973,34.2295416 C372.626252,34.8788092 374.533623,35.7510909 376.463134,36.8332035 L380.521418,29.5374571 C378.400395,28.1861895 376.060184,27.1117669 373.551709,26.3306683 C368.830329,24.8607528 363.993821,24.6970627 360.03074,25.9164993 C358.282778,26.4548092 356.738505,27.2721613 355.431131,28.3454852 C354.132613,29.416612 353.086492,30.7349218 352.321551,32.27295 C351.565466,33.803288 351.180228,35.5939923 351.180228,37.601119 L351.180228,37.7505275 C351.180228,39.6477951 351.541112,41.2693162 352.239633,42.56895 C352.952545,43.8784711 353.88243,45.0001331 355.008255,45.898781 C356.140722,46.8073162 357.43149,47.5554571 358.839602,48.1146402 C360.278709,48.6903021 361.717817,49.1857669 363.119286,49.5834571 C364.248432,49.9361049 365.315586,50.2656824 366.335138,50.5688937 C367.361333,50.8743021 368.281254,51.2005838 369.088262,51.5301613 C369.926265,51.8817106 370.599325,52.3057669 371.0853,52.7902458 C371.61777,53.3208655 371.890093,53.9525556 371.890093,54.664443 L371.890093,54.8171472 C371.890093,55.8575134 371.434007,56.7034289 370.537332,57.3373162 C369.671654,57.9470345 368.384206,58.2414571 366.601927,58.2414571 C364.627028,58.2414571 362.486079,57.827288 360.23775,57.0055416 C358.106764,56.2255416 355.94146,55.0687247 353.79719,53.5537669 L349.252931,60.484781 C351.869893,62.4633444 354.647371,63.9321613 357.518944,64.8681613 C360.493468,65.837119 363.449174,66.3270909 366.298607,66.3270909 C368.440663,66.3270909 370.474233,66.0656261 372.341752,65.5448937 C374.194879,65.0296542 375.833248,64.2485556 377.218112,63.2246683 C378.583051,62.2029782 379.65906,60.8846683 380.421787,59.3103866 C381.181193,57.7284148 381.570859,55.8080768 381.570859,53.6021049 L381.570859,53.4461049 C381.570859,51.6575979 381.200012,50.1173725 380.474923,48.8693725 C379.738765,47.6070909 378.795596,46.5216824 377.670878,45.6417106" id="Fill-11"></path>
            <path d="M412.733636,51.476237 C412.733636,53.719561 411.849138,55.5586032 410.105604,56.9461243 C408.385317,58.3138708 406.074996,59.0059835 403.243275,59.0059835 C401.279447,59.0059835 399.656576,58.5478708 398.417837,57.6371384 C397.146994,56.7066314 396.502716,55.376237 396.502716,53.6811102 L396.502716,53.528406 C396.502716,51.5795046 397.282049,50.0634483 398.816359,49.0296736 C400.304174,48.0299553 402.360991,47.5169131 404.924817,47.5169131 C406.371673,47.5169131 407.749896,47.6652229 409.021845,47.9442652 C410.291581,48.229899 411.457258,48.6100117 412.500058,49.0736173 L412.733636,49.1812793 L412.733636,51.476237 Z M418.629549,29.5362652 C417.202618,28.1234764 415.362775,27.0160962 413.162047,26.2547722 C410.948035,25.4879553 408.225908,25.1034483 405.078691,25.1034483 C401.661364,25.1034483 398.711193,25.4077581 396.30899,26.0020962 C394.020809,26.5711666 391.786872,27.3039271 389.670277,28.1915891 L392.33484,36.2541525 C394.08723,35.6136736 395.785377,35.1072229 397.386107,34.7512793 C399.11525,34.370068 401.139964,34.1723215 403.398256,34.1723215 C406.387171,34.1723215 408.685316,34.843561 410.227375,36.164068 C411.792681,37.5021525 412.585297,39.464237 412.585297,41.9997863 L412.585297,43.2357018 L412.055041,43.0555328 C410.600436,42.5567722 409.086052,42.1557863 407.560598,41.8569694 C406.037358,41.5614483 404.226296,41.4087441 402.171693,41.4087441 C399.771705,41.4087441 397.557693,41.6713074 395.58833,42.1898426 C393.633357,42.7094764 391.930782,43.4883779 390.528206,44.5199553 C389.130058,45.5361525 388.023052,46.8434764 387.242613,48.3968849 C386.463281,49.9491948 386.063652,51.8299835 386.063652,53.9843215 L386.063652,54.1326314 C386.063652,56.0870257 386.422321,57.8304905 387.13634,59.3124905 C387.84261,60.7944905 388.824524,62.0677581 390.047766,63.0861525 C391.274328,64.1089412 392.733362,64.8900398 394.381693,65.3964905 C396.041095,65.9194201 397.844408,66.1786877 399.727424,66.1786877 C402.511544,66.1786877 404.893821,65.7238708 406.821118,64.814237 C408.747308,63.9046032 410.427743,62.6741807 411.814821,61.1515328 L412.5067,60.3902088 L412.5067,65.4217581 L422.944657,65.4217581 L422.944657,42.2282933 C422.944657,39.5521243 422.59263,37.1044624 421.891895,34.9523215 C421.205551,32.8265469 420.104081,31.0017863 418.629549,29.5362652 L418.629549,29.5362652 Z" id="Fill-12"></path>
            <path d="M463.263886,46.3739611 C463.263886,48.136102 462.983814,49.7389471 462.431418,51.1451442 C461.880129,52.5491442 461.122937,53.7795668 460.179768,54.7979611 C459.226636,55.8174541 458.120737,56.6128344 456.878677,57.1654259 C455.632188,57.7169189 454.277213,57.993764 452.853604,57.993764 C451.429994,57.993764 450.071698,57.7169189 448.832959,57.1654259 C447.589791,56.6128344 446.48832,55.8130597 445.569505,54.7946654 C444.645156,53.7718766 443.895713,52.533764 443.35328,51.1022992 C442.803098,49.6752288 442.519704,48.087764 442.519704,46.3739611 L442.519704,46.2223555 C442.519704,44.5151442 442.803098,42.9232851 443.35328,41.4951161 C443.903462,40.0614541 444.645156,38.8233414 445.569505,37.8060457 C446.48832,36.7821583 447.589791,35.9889752 448.832959,35.4363837 C451.31708,34.3322992 454.382379,34.3322992 456.878677,35.4363837 C458.120737,35.9889752 459.226636,36.7821583 460.179768,37.8038485 C461.122937,38.8189471 461.885664,40.0592569 462.431418,41.4951161 C462.983814,42.9232851 463.263886,44.5151442 463.263886,46.2223555 L463.263886,46.3739611 Z M468.461279,30.9101865 C466.775309,29.1645245 464.814802,27.8308344 462.640642,26.944271 C460.453199,26.0599048 458.162804,25.6105809 455.836984,25.6105809 C452.865781,25.6105809 450.382767,26.2170034 448.442186,27.406778 C446.476143,28.6152288 444.78021,30.1763273 443.390918,32.0450316 L442.672471,33.0095949 L442.672471,11.6551724 L431.852596,11.6551724 L431.852596,66.232102 L442.672471,66.232102 L442.672471,60.2359893 L443.377634,61.059933 C444.719325,62.6408062 446.397546,64.0437076 448.364695,65.2257921 C450.301955,66.3935949 452.814859,66.9890316 455.836984,66.9890316 C458.21594,66.9890316 460.529582,66.5375104 462.715919,65.6531442 C464.892292,64.7720738 466.838408,63.4383837 468.503345,61.6905245 C470.16164,59.943764 471.523257,57.7641583 472.54613,55.2187217 C473.56679,52.6699893 474.084868,49.696102 474.084868,46.3739611 L474.084868,46.2223555 C474.084868,42.9090034 473.56679,39.9263273 472.54613,37.3797921 C471.523257,34.8376513 470.153891,32.66244 468.461279,30.9101865 L468.461279,30.9101865 Z" id="Fill-13"></path>
            <polygon id="Fill-14" points="479.437186 66.232102 490.258168 66.232102 490.258168 11.6551724 479.437186 11.6551724"></polygon>
            <path d="M507.013475,43.0028004 L507.090965,42.5402933 C507.560336,39.8432511 508.58653,37.6581525 510.134124,36.0388286 C511.714928,34.3975328 513.806062,33.565899 516.347748,33.565899 C518.900503,33.565899 520.977246,34.4129131 522.527054,36.0816736 C524.052508,37.7273638 525.013389,39.9058708 525.377594,42.5567722 L525.43848,43.0028004 L507.013475,43.0028004 Z M534.727365,38.5853638 C533.959103,35.9915891 532.749146,33.6636736 531.13181,31.66973 C529.52001,29.6735891 527.474263,28.0630539 525.03885,26.8842652 C522.612294,25.7010821 519.688691,25.1034483 516.347748,25.1034483 C513.416396,25.1034483 510.704232,25.6538426 508.295387,26.7381525 C505.889864,27.8202652 503.784339,29.3220398 502.044126,31.1951384 C500.307233,33.0693356 498.92569,35.2994764 497.958167,37.8185469 C496.987323,40.3398145 496.495812,43.0500398 496.495812,45.8668286 L496.495812,46.02173 C496.495812,49.0889976 497.02164,51.9101807 498.067761,54.3984905 C499.112774,56.8966877 500.587306,59.0861807 502.450397,60.9109412 C504.313487,62.7302088 506.556281,64.1616736 509.121214,65.1460117 C511.683932,66.1336455 514.502369,66.632406 517.49682,66.632406 C521.137762,66.632406 524.338116,65.9732511 527.029247,64.6670257 C529.598607,63.4113356 531.835866,61.6667722 533.680138,59.4871666 L527.587178,54.1326314 C526.017444,55.5069694 524.476491,56.5176736 523.004174,57.1526595 C521.433332,57.8293919 519.633341,58.1721525 517.64848,58.1721525 C514.972847,58.1721525 512.690201,57.4679553 510.870283,56.0771384 C509.043723,54.6863215 507.823803,52.6066877 507.247053,49.8953638 L507.145208,49.4174764 L535.777914,49.4174764 C535.817766,48.9934201 535.84212,48.590237 535.863153,48.1991384 C535.885293,47.7003779 535.896364,47.2301807 535.896364,46.7786595 C535.896364,43.9464905 535.504483,41.1912229 534.727365,38.5853638 L534.727365,38.5853638 Z" id="Fill-15"></path>
            <path d="M42.5765508,66.8542331 C26.0002457,66.8542331 12.9043668,49.9128528 11.2604632,34.0689655 L0,34.0689655 C1.68264885,55.45305 19.3283216,77.9895571 42.5765508,77.9895571 C65.819245,77.9895571 83.4627038,55.45305 85.1475666,34.0689655 L73.8871034,34.0689655 C72.2387718,49.9128528 59.1495349,66.8542331 42.5765508,66.8542331" id="Fill-16"></path>
            <path d="M11.2516071,23.8987606 C11.414337,16.842507 17.2272246,11.1397183 24.3773752,11.1397183 C31.4179322,11.1397183 36.9319281,16.7260563 37.084695,23.8987606 L48.3617632,23.8987606 C48.51453,16.7260563 54.024098,11.1397183 61.05912,11.1397183 C68.2125916,11.1397183 74.0310142,16.842507 74.193744,23.8987606 L85.4287461,23.8987606 C85.2671232,10.6969859 74.4040751,0 61.05912,0 C53.6222549,0 47.0831715,3.27270423 42.7248896,8.49430986 C38.3632867,3.27270423 31.8219893,0 24.3773752,0 C19.5331177,0 15.02539,1.42597183 11.223932,3.85825352 L11.223932,1.08650704 L0,1.08650704 L0,23.8987606 L11.2516071,23.8987606 Z" id="Fill-17"></path>
        </g>
    </g>
</svg>