<?xml version="1.0" encoding="UTF-8"?>
<svg width="840px" height="660px" viewBox="0 0 840 660" version="1.1" xmlns="http://www.w3.org/2000/svg" xmlns:xlink="http://www.w3.org/1999/xlink">
    <!-- Generator: Sketch 52 (66869) - http://www.bohemiancoding.com/sketch -->
    <title>Citizens Advice</title>
    <desc>Created with Sketch.</desc>
    <g id="Citizens-Advice" stroke="none" stroke-width="1" fill="none" fill-rule="evenodd">
        <rect fill="#F2F2F2" x="0" y="0" width="840" height="660"></rect>
        <g id="ca-logo_100px" transform="translate(286.000000, 189.000000)" fill-rule="nonzero">
            <g id="Group">
                <path d="M267.874828,133.143939 C267.874828,214.734545 197.741032,282.420606 125.787871,282.420606 C125.675065,282.420606 134.051667,260.766364 133.941753,260.766364 C59.9638602,260.763485 0,206.671061 0,133.143939 C0,59.6110606 59.9638602,0 133.944645,0 C207.905183,0 267.874828,59.6110606 267.874828,133.143939" id="Shape" fill="#7A7A7A"></path>
                <path d="M206.323,177.10303 C207.853118,176.777727 209.287785,176.276818 210.635677,175.606061 L210.635677,169.684394 C208.98986,170.450152 207.41057,171.011515 205.894914,171.365606 C204.382151,171.713939 202.771043,171.895303 201.076054,171.895303 C198.889344,171.895303 197.191462,171.282121 195.979516,170.061515 C194.773355,168.835152 194.119656,167.136667 194.038667,164.966061 L212.223645,164.966061 L212.223645,161.243788 C212.223645,157.262424 211.112935,154.136061 208.897301,151.88197 C206.678774,149.622121 203.575151,148.490758 199.58643,148.490758 C195.415484,148.490758 192.152774,149.771818 189.789624,152.348333 C187.429366,154.913333 186.240559,158.549242 186.240559,163.250303 C186.240559,167.821818 187.521925,171.351212 190.075978,173.844242 C192.62714,176.345909 196.179097,177.589545 200.72028,177.589545 C202.927237,177.589545 204.795774,177.428333 206.323,177.10303 L206.323,177.10303 Z M203.523086,155.489091 C204.483387,156.511061 204.978,157.973485 205.01271,159.864848 L194.218,159.864848 C194.348161,157.976364 194.880376,156.513939 195.811753,155.489091 C196.728667,154.461364 198.015817,153.937424 199.638495,153.937424 C201.272742,153.937424 202.562785,154.458485 203.523086,155.489091 L203.523086,155.489091 Z M178.691204,177.134697 C179.958108,176.835303 181.213441,176.291212 182.460097,175.505303 L182.460097,168.956061 C181.196086,169.793788 179.934968,170.40697 178.673849,170.801364 C177.406946,171.195758 176.044591,171.391515 174.563645,171.391515 C170.560462,171.391515 168.561763,168.64803 168.561763,163.155303 C168.561763,157.498485 170.560462,154.671515 174.563645,154.671515 C175.607828,154.671515 176.643333,154.829848 177.696194,155.137879 C178.731699,155.445909 179.862656,155.846061 181.074602,156.332576 L183.345194,150.402273 C180.753538,149.132727 177.826355,148.496515 174.563645,148.496515 C170.103452,148.496515 166.681656,149.757424 164.292473,152.273485 C161.909075,154.792424 160.717376,158.43697 160.717376,163.204242 C160.717376,172.796364 165.105258,177.592424 173.883914,177.592424 C175.818978,177.589545 177.415624,177.442727 178.691204,177.134697 L178.691204,177.134697 Z M155.395226,149.017576 L147.701247,149.017576 L147.701247,177.091515 L155.395226,177.091515 L155.395226,149.017576 L155.395226,149.017576 Z M151.559806,145.531364 C152.953978,145.531364 154.001054,145.200303 154.69814,144.541061 C155.398118,143.878939 155.748108,142.954848 155.748108,141.76303 C155.748108,139.272879 154.351043,138.023485 151.559806,138.023485 C148.76857,138.023485 147.371505,139.272879 147.371505,141.76303 C147.371505,144.276212 148.771462,145.531364 151.559806,145.531364 L151.559806,145.531364 Z M133.956215,177.091515 L144.69886,149.017576 L136.654892,149.017576 L131.231505,165.012121 C130.557559,167.237424 130.17286,169.154697 130.091871,170.763939 L129.941462,170.763939 C129.785269,168.953182 129.409247,167.035909 128.801828,165.012121 L123.352409,149.014697 L115.311333,149.014697 L126.053978,177.088636 L133.956215,177.088636 L133.956215,177.091515 Z M95.2057527,169.416667 C94.2512366,168.037727 93.771086,165.965 93.771086,163.204242 C93.771086,160.443485 94.2454516,158.34197 95.1941828,156.893939 C96.1458065,155.445909 97.4763441,154.726212 99.1915806,154.726212 C101.294409,154.726212 102.810065,155.373939 103.744333,156.683788 C104.678602,157.982121 105.141398,160.141212 105.141398,163.155303 L105.141398,163.987273 C105.060409,166.713485 104.560011,168.64803 103.640204,169.790909 C102.72329,170.92803 101.285731,171.495152 99.315957,171.495152 C97.537086,171.489394 96.1631613,170.798485 95.2057527,169.416667 L95.2057527,169.416667 Z M104.61786,173.44697 L104.94471,173.44697 L106.434333,177.091515 L112.332086,177.091515 L112.332086,138.026364 L104.61786,138.026364 L104.61786,147.011061 C104.61786,148.654848 104.808763,150.520303 105.19057,152.610303 L104.94471,152.610303 C103.076172,149.866818 100.368817,148.493636 96.8226452,148.493636 C93.4355591,148.493636 90.7860538,149.774697 88.8625591,152.351212 C86.9390645,154.916212 85.9729785,158.503182 85.9729785,163.100606 C85.9729785,167.637576 86.9188172,171.187121 88.8076022,173.749242 C90.702172,176.308485 93.3053978,177.589545 96.6172796,177.589545 C100.203946,177.589545 102.867914,176.210606 104.61786,173.44697 L104.61786,173.44697 Z M74.189043,166.391061 C74.189043,168.083788 73.6597204,169.439697 72.5895054,170.461667 C71.5221828,171.480758 70.099086,171.990303 68.3144301,171.990303 C65.8240108,171.990303 64.5773548,170.910758 64.5773548,168.751667 C64.5773548,167.246061 65.1240323,166.126212 66.2173871,165.389242 C67.3107419,164.652273 68.973914,164.249242 71.2126882,164.185909 L74.1861505,164.085152 L74.1861505,166.391061 L74.189043,166.391061 Z M81.8338495,177.091515 L81.8338495,158.390909 C81.8338495,155.04 80.8272688,152.544091 78.8083226,150.900303 C76.7951613,149.265152 73.8911183,148.441818 70.104871,148.441818 C66.1537527,148.441818 62.5584086,149.291061 59.3043763,150.97803 L61.8584301,156.151212 C64.9013118,154.789545 67.5508172,154.115909 69.8040538,154.115909 C72.7283441,154.115909 74.1919355,155.53803 74.1919355,158.38803 L74.1919355,159.614394 L69.3036559,159.76697 C65.0777527,159.913788 61.924957,160.699697 59.827914,162.110303 C57.7366559,163.526667 56.6895806,165.720303 56.6895806,168.705606 C56.6895806,171.549848 57.4705484,173.737727 59.020914,175.283636 C60.579957,176.81803 62.7088172,177.589545 65.421957,177.589545 C67.623129,177.589545 69.4077849,177.275758 70.7817097,176.645303 C72.1498495,176.020606 73.4832796,174.897879 74.782,173.271364 L74.9815806,173.271364 L76.4712043,177.088636 L81.8338495,177.088636 L81.8338495,177.091515 Z" id="Shape" fill="#FFFFFF"></path>
                <path d="M225.899258,112.586515 C225.416215,111.584697 224.655495,110.69803 223.628667,109.926515 C222.604731,109.155 220.993624,108.328788 218.786667,107.445 C216.316495,106.451818 214.714065,105.709091 213.985161,105.211061 C213.253366,104.704394 212.883129,104.114242 212.883129,103.423333 C212.883129,102.202727 214.022763,101.595303 216.293355,101.595303 C217.563151,101.595303 218.818484,101.785303 220.050677,102.171061 C221.279978,102.556818 222.598946,103.05197 224.010473,103.653636 L226.333129,98.1321212 C223.119591,96.6524242 219.816387,95.9212121 216.417731,95.9212121 C212.851312,95.9212121 210.097677,96.6006061 208.15972,97.9622727 C206.213086,99.329697 205.23543,101.258485 205.23543,103.754394 C205.23543,105.211061 205.46972,106.437424 205.938301,107.430606 C206.398204,108.426667 207.135785,109.307576 208.15972,110.079091 C209.174978,110.850606 210.765839,111.682576 212.935194,112.586515 C214.445065,113.225606 215.659903,113.784091 216.56814,114.256212 C217.473484,114.734091 218.115613,115.160152 218.485849,115.537273 C218.853194,115.914394 219.038312,116.403788 219.038312,117.005455 C219.038312,118.614697 217.64414,119.417879 214.852903,119.417879 C213.490548,119.417879 211.914151,119.193333 210.12371,118.738485 C208.333269,118.289394 206.719269,117.730909 205.290387,117.057273 L205.290387,123.38197 C206.554398,123.917424 207.905183,124.326212 209.351419,124.602576 C210.797656,124.878939 212.54471,125.02 214.595473,125.02 C218.598656,125.02 221.603935,124.26 223.614204,122.760152 C225.621581,121.248788 226.628161,119.060909 226.628161,116.182121 C226.631054,114.791667 226.385194,113.594091 225.899258,112.586515 L225.899258,112.586515 Z M200.069473,106.215758 C200.069473,102.882121 199.219086,100.337273 197.521204,98.5668182 C195.826215,96.8021212 193.335796,95.9240909 190.052839,95.9240909 C188.138022,95.9240909 186.425677,96.2666667 184.921591,96.9575758 C183.414613,97.66 182.234484,98.6848485 181.378312,100.037879 L180.947333,100.037879 L179.917613,96.4451515 L174.040108,96.4451515 L174.040108,124.513333 L181.734086,124.513333 L181.734086,111.311212 C181.734086,107.994848 182.211344,105.619848 183.16586,104.19197 C184.129054,102.758333 185.685204,102.044394 187.834312,102.044394 C189.419387,102.044394 190.567699,102.551061 191.290817,103.561515 C192.013935,104.57197 192.378387,106.09197 192.378387,108.115758 L192.378387,124.510455 L200.069473,124.510455 L200.069473,106.215758 Z M162.915656,124.524848 C164.437097,124.199545 165.877548,123.704394 167.222548,123.033636 L167.222548,117.109091 C165.576731,117.880606 163.997441,118.439091 162.478892,118.790303 C160.969022,119.144394 159.360806,119.32 157.662925,119.32 C155.473323,119.32 153.778333,118.706818 152.566387,117.486212 C151.354441,116.265606 150.709419,114.567121 150.622645,112.387879 L168.810516,112.387879 L168.810516,108.674242 C168.810516,104.69 167.702699,101.575152 165.484172,99.3095455 C163.262753,97.0554545 160.159129,95.9240909 156.176194,95.9240909 C152.002355,95.9240909 148.739645,97.2051515 146.367817,99.7759091 C144.013344,102.346667 142.82743,105.976818 142.82743,110.683636 C142.82743,115.255152 144.105903,118.778788 146.662849,121.277576 C149.219796,123.776364 152.765968,125.022879 157.307151,125.022879 C159.514108,125.02 161.382645,124.850152 162.915656,124.524848 L162.915656,124.524848 Z M160.109957,102.910909 C161.070258,103.938636 161.564871,105.401061 161.599581,107.289545 L150.804871,107.289545 C150.937925,105.401061 151.467247,103.938636 152.398624,102.910909 C153.31843,101.883182 154.602688,101.365 156.228258,101.365 C157.85672,101.365 159.152548,101.883182 160.109957,102.910909 L160.109957,102.910909 Z M140.007269,118.666515 L126.834946,118.666515 L139.550258,101.416818 L139.550258,96.4451515 L118.513301,96.4451515 L118.513301,102.297727 L130.797634,102.297727 L117.729441,119.993636 L117.729441,124.510455 L140.004376,124.510455 L140.004376,118.666515 L140.007269,118.666515 Z M113.344452,96.4451515 L105.650473,96.4451515 L105.650473,124.513333 L113.344452,124.513333 L113.344452,96.4451515 L113.344452,96.4451515 Z M109.50614,92.9589394 C110.903204,92.9589394 111.95028,92.6278788 112.650258,91.9628788 C113.344452,91.3036364 113.694441,90.3766667 113.694441,89.1906061 C113.694441,86.7004545 112.300269,85.4481818 109.50614,85.4481818 C106.717796,85.4481818 105.320731,86.7004545 105.320731,89.1906061 C105.320731,91.7009091 106.720688,92.9589394 109.50614,92.9589394 L109.50614,92.9589394 Z M93.7045591,118.136818 C93.0826774,117.612879 92.7847527,116.815455 92.7847527,115.730152 L92.7847527,102.19697 L100.678312,102.19697 L100.678312,96.4451515 L92.7847527,96.4451515 L92.7847527,90.4745455 L87.8675484,90.4745455 L85.6432366,96.3962121 L81.4086559,98.9612121 L81.4086559,102.19697 L85.0907742,102.19697 L85.0907742,115.730152 C85.0907742,118.824848 85.7936452,121.150909 87.1964946,122.696818 C88.6022366,124.242727 90.8410108,125.02 93.9186022,125.02 C96.7098387,125.02 99.0585269,124.593939 100.979129,123.738939 L100.979129,118.038939 C99.096129,118.623333 97.4850215,118.91697 96.137129,118.91697 C95.1334409,118.914091 94.3177634,118.657879 93.7045591,118.136818 L93.7045591,118.136818 Z M77.2174624,96.4451515 L69.5292688,96.4451515 L69.5292688,124.513333 L77.2174624,124.513333 L77.2174624,96.4451515 Z M73.3849355,92.9589394 C74.7762151,92.9589394 75.8290753,92.6278788 76.5290538,91.9628788 C77.2232473,91.3036364 77.5674516,90.3766667 77.5674516,89.1906061 C77.5674516,86.7004545 76.1732796,85.4481818 73.3849355,85.4481818 C70.5936989,85.4481818 69.1966344,86.7004545 69.1966344,89.1906061 C69.1966344,91.7009091 70.5936989,92.9589394 73.3849355,92.9589394 L73.3849355,92.9589394 Z M60.2531075,124.565152 C61.5257957,124.262879 62.7840215,123.721667 64.0277849,122.935758 L64.0277849,116.380758 C62.7608817,117.221364 61.5026559,117.837424 60.2415376,118.228939 C58.9775269,118.626212 57.6093871,118.82197 56.1313333,118.82197 C52.1223656,118.82197 50.1294516,116.078485 50.1294516,110.585758 C50.1294516,104.928939 52.1223656,102.10197 56.1313333,102.10197 C57.1726237,102.10197 58.2168065,102.254545 59.2609892,102.562576 C60.3022796,102.870606 61.4303441,103.273636 62.6422903,103.760152 L64.9070968,97.8327273 C62.3183333,96.560303 59.394043,95.9269697 56.1313333,95.9269697 C51.6711398,95.9269697 48.2464516,97.1821212 45.8601613,99.7039394 C43.473871,102.222879 42.2850645,105.867424 42.2850645,110.634697 C42.2850645,120.226818 46.6729462,125.022879 55.4516022,125.022879 C57.3837742,125.02 58.9862043,124.867424 60.2531075,124.565152 L60.2531075,124.565152 Z" id="Shape" fill="#FFFFFF"></path>
            </g>
        </g>
    </g>
</svg>