<?xml version="1.0" encoding="UTF-8"?>
<svg width="840px" height="660px" viewBox="0 0 840 660" version="1.1" xmlns="http://www.w3.org/2000/svg" xmlns:xlink="http://www.w3.org/1999/xlink">
    <!-- Generator: Sketch 52 (66869) - http://www.bohemiancoding.com/sketch -->
    <title>NHS</title>
    <desc>Created with Sketch.</desc>
    <defs>
        <radialGradient cx="50%" cy="50%" fx="50%" fy="50%" r="74.2971721%" gradientTransform="translate(0.500000,0.500000),scale(0.785714,1.000000),rotate(90.000000),translate(-0.500000,-0.500000)" id="radialGradient-1">
            <stop stop-color="#F7F7F7" offset="0%"></stop>
            <stop stop-color="#E2E2E2" offset="100%"></stop>
        </radialGradient>
    </defs>
    <g id="NHS" stroke="none" stroke-width="1" fill="none" fill-rule="evenodd">
        <rect fill="#F2F2F2" x="0" y="0" width="840" height="660"></rect>
        <rect id="Rectangle" fill="url(#radialGradient-1)" x="0" y="0" width="840" height="660"></rect>
        <g id="Group" transform="translate(257.750000, 264.000000)">
            <polygon id="Fill-1" fill="#676767" points="0 131.478671 324.070577 131.478671 324.070577 0 0 0"></polygon>
            <polyline id="Fill-2" fill="#FFFFFF" points="31.5070457 12.5952756 66.5322196 12.5952756 88.0445832 85.4573255 88.341568 85.4573255 103.078489 12.5952756 129.548215 12.5952756 107.304812 117.665789 72.399574 117.665789 50.4531557 44.9618947 50.1561708 44.9618947 35.5563198 117.665789 9.08659392 117.665789 31.5070457 12.5952756"></polyline>
            <polyline id="Fill-3" fill="#FFFFFF" points="139.919839 12.5952756 168.030597 12.5952756 159.772134 52.7915448 193.000169 52.7915448 201.277669 12.5952756 229.388427 12.5952756 207.579078 117.665789 179.468321 117.665789 188.792883 72.6638791 155.545811 72.6638791 146.221248 117.665789 118.110491 117.665789 139.919839 12.5952756"></polyline>
            <path d="M303.368112,36.3814822 C297.955754,33.8300338 290.588245,31.5758415 280.216621,31.5758415 C269.094919,31.5758415 260.067342,33.2183722 260.067342,41.659684 C260.067342,56.5491672 300.820896,50.9927642 300.820896,82.9058771 C300.820896,111.951231 273.894271,119.48553 249.537706,119.48553 C238.711086,119.48553 226.2263,116.915027 217.061652,114.047267 L223.679084,92.6734085 C229.230416,96.2919302 240.371155,98.704278 249.537706,98.704278 C258.268299,98.704278 271.93912,97.0426925 271.93912,86.2080878 C271.93912,69.3426135 231.185566,75.6688337 231.185566,46.0289679 C231.185566,18.9214958 254.950064,10.796495 277.964486,10.796495 C290.902364,10.796495 303.073031,12.1608244 310.143555,15.4611296 L303.368112,36.3814822" id="Fill-4" fill="#FFFFFF"></path>
        </g>
    </g>
</svg>