<?xml version="1.0" encoding="UTF-8"?>
<svg width="840px" height="660px" viewBox="0 0 840 660" version="1.1" xmlns="http://www.w3.org/2000/svg" xmlns:xlink="http://www.w3.org/1999/xlink">
    <!-- Generator: Sketch 52 (66869) - http://www.bohemiancoding.com/sketch -->
    <title>TutorMe</title>
    <desc>Created with Sketch.</desc>
    <defs>
        <radialGradient cx="50%" cy="50%" fx="50%" fy="50%" r="101.863137%" gradientTransform="translate(0.500000,0.500000),scale(0.785714,1.000000),rotate(90.000000),translate(-0.500000,-0.500000)" id="radialGradient-1">
            <stop stop-color="#F7F7F7" offset="0%"></stop>
            <stop stop-color="#E2E2E2" offset="100%"></stop>
        </radialGradient>
        <polygon id="path-2" points="0 0.539 470.7136 0.539 470.7136 88.158 0 88.158"></polygon>
    </defs>
    <g id="TutorMe" stroke="none" stroke-width="1" fill="none" fill-rule="evenodd">
        <rect fill="#F1F1F1" x="0" y="0" width="840" height="660"></rect>
        <rect id="Rectangle" fill="url(#radialGradient-1)" x="0" y="0" width="840" height="660"></rect>
        <g id="TutorMe_Black" transform="translate(184.950000, 285.900000)">
            <path d="M363.4057,41.5905 C358.3594,41.5905 354.4296,42.8981 350.5047,44.9533 L350.5047,82.5377 C350.5047,83.5646 349.6633,84.4991 348.635,84.4991 L340.0327,84.4991 C339.0044,84.4991 338.1658,83.5646 338.1658,82.5377 L338.1658,33.6406 C338.1658,32.6137 339.0044,31.7751 340.0327,31.7751 L348.1702,31.7751 C349.1978,31.7751 350.0392,32.6137 350.0392,33.6406 L350.0392,35.6076 C354.6193,32.0523 359.6656,31.1171 363.4057,31.1171 C364.434,31.1171 365.2775,31.9599 365.2775,32.9868 L365.2775,39.7201 C365.2775,40.7477 364.434,41.5905 363.4057,41.5905 Z M321.8145,54.3949 C321.8145,46.7306 318.3544,41.7753 311.8094,41.7753 C305.2658,41.7753 301.805,46.7306 301.805,54.3949 L301.805,61.9675 C301.805,69.636 305.2658,74.5913 311.8094,74.5913 C318.3544,74.5913 321.8145,69.636 321.8145,61.9675 L321.8145,54.3949 Z M311.8094,85.246 C297.1346,85.246 289.4703,75.3375 289.4703,61.9675 L289.4703,54.3949 C289.4703,41.0284 297.1346,31.1171 311.8094,31.1171 C326.487,31.1171 334.1534,41.0284 334.1534,54.3949 L334.1534,61.9675 C334.1534,75.3375 326.487,85.246 311.8094,85.246 Z M286.4799,84.5915 C284.2371,84.9653 282.1833,85.246 280.1246,85.246 C269.5595,85.246 265.2601,82.9108 265.2601,70.3822 L265.2601,41.0284 L256.473,39.7201 C255.4426,39.5318 254.6033,38.8773 254.6033,37.8504 L254.6033,33.6406 C254.6033,32.6137 255.4426,31.7751 256.473,31.7751 L265.2601,31.7751 L265.2601,24.1059 C265.2601,23.079 266.0994,22.4252 267.127,22.2362 L275.8252,20.7438 C275.9141,20.7438 276.1038,20.7438 276.1948,20.7438 C277.0383,20.7438 277.697,21.2086 277.697,22.1438 L277.697,31.7751 L286.1089,31.7751 C287.1337,31.7751 287.9772,32.6137 287.9772,33.6406 L287.9772,39.1587 C287.9772,40.1856 287.1337,41.0284 286.1089,41.0284 L277.697,41.0284 L277.697,70.3822 C277.697,75.0575 277.9728,75.6196 281.3398,75.6196 L286.2902,75.6196 C287.5124,75.6196 288.2579,76.0844 288.2579,77.0203 L288.2579,82.9108 C288.2579,83.8467 287.6972,84.4074 286.4799,84.5915 Z M250.4047,84.4991 L241.8066,84.4991 C240.7783,84.4991 239.9348,83.657 239.9348,82.6301 L239.9348,80.479 C235.0719,83.657 231.2408,85.1536 225.2565,85.1536 C220.5861,85.1536 216.468,83.9377 213.7555,81.2287 C210.2975,77.77 209.0844,71.9712 209.0844,64.2152 L209.0844,33.7372 C209.0844,32.7103 209.9279,31.7751 210.9548,31.7751 L219.5543,31.7751 C220.5861,31.7751 221.4247,32.7103 221.4247,33.7372 L221.4247,64.2152 C221.4247,68.8863 221.7978,71.5988 223.5758,73.1871 C224.8841,74.3113 226.4724,74.8685 229.3704,74.8685 C232.8291,74.8685 237.3203,72.5333 239.9348,71.134 L239.9348,33.7372 C239.9348,32.7103 240.7783,31.7751 241.8066,31.7751 L250.4047,31.7751 C251.4372,31.7751 252.2765,32.7103 252.2765,33.7372 L252.2765,82.6301 C252.2765,83.657 251.4372,84.4991 250.4047,84.4991 Z M215.6336,25.8839 L199.2739,25.8839 L199.2739,82.6301 C199.2739,83.657 198.4353,84.4991 197.4035,84.4991 L188.146,84.4991 C187.1184,84.4991 186.2791,83.657 186.2791,82.6301 L186.2791,25.8839 L169.9194,25.8839 C168.8925,25.8839 168.049,25.2301 168.049,24.2025 L168.049,16.8154 C168.049,15.7878 168.8925,15.0374 169.9194,15.0374 L215.6336,15.0374 C216.6619,15.0374 217.504,15.7878 217.504,16.8154 L217.504,24.2025 C217.504,25.2301 216.6619,25.8839 215.6336,25.8839 Z" id="Fill-1" fill="#555555"></path>
            <g id="Group-6">
                <mask id="mask-3" fill="white">
                    <use xlink:href="#path-2"></use>
                </mask>
                <g id="Clip-3"></g>
                <path d="M462.3913,54.3032 C462.3913,43.7409 458.3747,39.6277 450.1441,39.6277 C442.106,39.6277 437.6204,44.2071 437.6204,54.3032 L437.6204,55.146 L462.3913,55.146 L462.3913,54.3032 Z M468.9405,61.4103 L437.6204,61.4103 L437.6204,62.7172 C437.6204,73.8416 442.015,77.9548 450.6131,77.9548 C456.036,77.9548 462.9541,77.5824 467.2556,76.9279 C467.4404,76.9279 467.5363,76.9279 467.7211,76.9279 C468.4708,76.9279 469.2205,77.3003 469.2205,78.2348 L469.2205,81.4142 C469.2205,82.6301 468.8446,83.2832 467.3515,83.5646 C462.0217,84.5915 456.8774,85.1536 450.6131,85.1536 C439.8632,85.1536 429.3933,80.1052 429.3933,62.7172 L429.3933,54.3032 C429.3933,40.936 436.7811,32.4296 450.1441,32.4296 C463.7955,32.4296 470.7136,41.0284 470.7136,54.3032 L470.7136,59.3509 C470.7136,60.5668 470.0598,61.4103 468.9405,61.4103 Z M423.6078,84.4991 L419.0284,84.4991 C418.0008,84.4991 417.1587,83.657 417.1587,82.6301 L417.1587,27.1922 C417.1587,27.0032 417.1587,26.9108 417.0635,26.9108 C416.9704,26.9108 416.9704,26.9108 416.8787,27.0998 L403.5066,54.7729 C402.577,56.6426 401.6383,57.4819 399.3017,57.4819 L395.0002,57.4819 C392.6636,57.4819 391.7291,56.6426 390.7939,54.7729 L377.4232,27.0998 C377.3315,26.9108 377.3315,26.9108 377.2384,26.9108 C377.1425,26.9108 377.1425,27.0032 377.1425,27.1922 L377.1425,82.6301 C377.1425,83.657 376.3032,84.4991 375.2728,84.4991 L370.6941,84.4991 C369.6658,84.4991 368.8251,83.657 368.8251,82.6301 L368.8251,17.7499 C368.8251,16.2533 370.0396,15.0374 371.5376,15.0374 L377.6122,15.0374 C379.295,15.0374 380.0447,15.414 380.6033,16.6264 L396.0285,48.6927 C396.4044,49.5355 396.6844,49.7245 397.1492,49.7245 C397.6168,49.7245 397.8975,49.5355 398.2734,48.6927 L413.6986,16.6264 C414.2621,15.414 415.0069,15.0374 416.6897,15.0374 L422.7692,15.0374 C424.2623,15.0374 425.4768,16.2533 425.4768,17.7499 L425.4768,82.6301 C425.4768,83.657 424.6382,84.4991 423.6078,84.4991 Z" id="Fill-2" fill="#555555" mask="url(#mask-3)"></path>
                <path d="M91.8421,83.1873 C92.2103,84.5999 92.5288,85.876 92.5288,86.037 C92.5288,86.1889 93.7244,86.3135 95.1762,86.3135 L119.8512,86.3135 C121.3037,86.3135 122.4958,85.2824 122.4958,84.0217 C122.4958,82.7624 121.3037,81.7355 119.8512,81.7355 L98.8281,81.7355 C97.3791,81.7355 95.8748,80.5798 95.4891,79.1742 L87.5679,49.8484 C87.1829,48.4365 85.8865,47.5531 84.6629,47.8905 C83.4596,48.2153 82.7603,49.6398 83.1418,51.0447 L91.8421,83.1873 Z M121.1399,0.539 C113.106,0.539 106.5974,7.0518 106.5974,15.0976 C106.5974,23.1308 113.106,29.6478 121.1399,29.6478 C129.1815,29.6478 135.6908,23.1308 135.6908,15.0976 C135.6908,7.0518 129.1815,0.539 121.1399,0.539 Z M138.4698,77.8673 C145.8744,76.3581 154.1323,72.7223 154.1323,63.9982 C154.1323,51.9274 144.3092,42.1036 132.2475,42.1036 C121.8455,42.1036 115.7989,55.3826 110.453,67.0999 C109.9196,68.2598 109.3974,69.3987 108.8843,70.5033 C108.5469,71.2215 108.2984,71.8753 108.0856,72.4647 L97.6682,72.4647 C98.0252,70.5229 98.6874,68.4446 99.7311,66.2368 C100.2246,65.1623 100.7342,64.0388 101.2557,62.8985 C107.1952,49.8645 115.353,31.9991 132.2475,31.9991 C149.8791,31.9991 164.2494,46.3575 164.2494,63.9982 C164.2494,76.8236 154.6153,85.5876 138.4698,88.2 L138.4698,77.8673 Z" id="Fill-4" fill="#555555" mask="url(#mask-3)"></path>
                <path d="M81.0957,51.0447 C81.4772,49.6398 80.7779,48.2153 79.5746,47.8905 C78.3545,47.5531 77.0546,48.4365 76.6689,49.8484 L68.74,79.1742 C68.3585,80.5798 66.8577,81.7355 65.3891,81.7355 L44.3814,81.7355 C42.9289,81.7355 41.7291,82.7624 41.7291,84.0217 C41.7291,85.2824 42.9289,86.3135 44.3814,86.3135 L69.0564,86.3135 C70.5096,86.3135 71.6968,86.1889 71.6968,86.037 C71.6968,85.876 72.0265,84.5999 72.3954,83.1873 L81.0957,51.0447 Z M44.7671,0.539 C36.7255,0.539 30.2162,7.0518 30.2162,15.0976 C30.2162,23.1308 36.7255,29.6478 44.7671,29.6478 C52.8087,29.6478 59.3215,23.1308 59.3215,15.0976 C59.3215,7.0518 52.8087,0.539 44.7671,0.539 Z M25.7544,88.2 C9.6425,85.5876 0,76.8236 0,63.9982 C0,46.3575 14.3458,31.9991 31.99,31.9991 C48.8761,31.9991 57.0339,49.8645 62.9734,62.8985 C63.4991,64.0388 64.0164,65.1623 64.5099,66.2368 C65.5459,68.4446 66.2032,70.5229 66.5609,72.4647 L56.1554,72.4647 C55.9349,71.8753 55.6857,71.2215 55.3525,70.5033 C54.8394,69.3987 54.3095,68.2598 53.7838,67.0999 C48.4302,55.3826 42.3794,42.1036 31.99,42.1036 C19.9276,42.1036 10.1045,51.9274 10.1045,63.9982 C10.1045,72.7223 18.3666,76.3581 25.7544,77.8673 L25.7544,88.2 Z" id="Fill-5" fill="#555555" mask="url(#mask-3)"></path>
            </g>
        </g>
    </g>
</svg>